<?xml version="1.0" encoding="UTF-8" standalone="no"?>
<!-- Created with Inkscape (http://www.inkscape.org/) -->

<svg
   xmlns:dc="http://purl.org/dc/elements/1.1/"
   xmlns:cc="http://creativecommons.org/ns#"
   xmlns:rdf="http://www.w3.org/1999/02/22-rdf-syntax-ns#"
   xmlns:svg="http://www.w3.org/2000/svg"
   xmlns="http://www.w3.org/2000/svg"
   xmlns:sodipodi="http://sodipodi.sourceforge.net/DTD/sodipodi-0.dtd"
   xmlns:inkscape="http://www.inkscape.org/namespaces/inkscape"
   width="218.33273"
   height="240.15355"
   id="svg2"
   version="1.1"
   inkscape:version="0.48.2 r9819"
   sodipodi:docname="escudo de Pachuca.svg">
  <defs
     id="defs4" />
  <sodipodi:namedview
     id="base"
     pagecolor="#ffffff"
     bordercolor="#666666"
     borderopacity="1.0"
     inkscape:pageopacity="0.0"
     inkscape:pageshadow="2"
     inkscape:zoom="2.0122031"
     inkscape:cx="111.31577"
     inkscape:cy="168.22978"
     inkscape:document-units="px"
     inkscape:current-layer="layer1"
     showgrid="false"
     fit-margin-top="0"
     fit-margin-left="0"
     fit-margin-right="0"
     fit-margin-bottom="0"
     inkscape:window-width="1024"
     inkscape:window-height="538"
     inkscape:window-x="-8"
     inkscape:window-y="-8"
     inkscape:window-maximized="1" />
  <metadata
     id="metadata7">
    <rdf:RDF>
      <cc:Work
         rdf:about="">
        <dc:format>image/svg+xml</dc:format>
        <dc:type
           rdf:resource="http://purl.org/dc/dcmitype/StillImage" />
        <dc:title />
      </cc:Work>
    </rdf:RDF>
  </metadata>
  <g
     inkscape:label="Layer 1"
     inkscape:groupmode="layer"
     id="layer1"
     transform="translate(-245.47866,-422.15414)">
    <path
       style="fill:#008000;stroke:#000000;stroke-width:3;stroke-linecap:round;stroke-linejoin:round;stroke-miterlimit:4;stroke-opacity:1;stroke-dasharray:none"
       d="m 46.477257,75.968818 c -6.881602,-0.877742 -12.684476,1.112157 -17.004534,2.445712 -3.605915,3.89786 -4.396911,6.611302 -4.300178,10.291554 0.07828,3.058682 7.042837,5.360524 8.651014,7.982092 -3.75161,2.585003 -11.416253,7.141314 -11.439981,14.042034 -1.14888,7.57495 11.179988,10.37154 9.016059,12.13325 -4.650671,1.39619 -7.716364,10.41165 -7.935837,13.97862 1.235919,4.03478 1.350209,4.8394 5.34457,8.16551 1.641208,1.21726 6.676029,3.62894 9.615871,4.20786 -17.039607,7.31953 -25.380621,27.70328 -27.787248,31.64409 -4.0123929,9.81766 -3.7264817,18.7528 -3.0391408,27.60553 6.7336128,16.47863 16.2990498,29.52474 30.8979328,36.4697 4.445566,2.17279 26.062576,4.86886 30.167142,2.07217 2.22533,-5.2823 -4.373493,-5.0999 -5.116596,-10.61108 0.222398,-3.89754 0.323991,-7.67903 1.396668,-9.8083 6.757015,-6.14294 5.57501,-4.70558 11.851489,-5.83248 35.299172,-0.54219 49.745992,0.23351 81.350102,-0.2278 4.63376,0.61394 5.98739,3.60234 9.5445,6.17573 1.90685,4.36778 -0.0452,7.07178 -1.53539,11.87739 -1.89725,2.82193 -4.45873,6.61568 -3.85555,8.62626 2.39163,3.33518 18.81423,0.76649 21.87841,-1.07449 5.95504,-2.4222 24.14021,-11.95525 30.17724,-23.60779 8.8737,-14.73163 8.18618,-17.22431 8.14782,-26.74785 -2.39212,-20.21963 -10.26132,-29.02867 -20.90527,-43.13877 -1.69949,-1.43943 -4.60312,-2.39106 -6.54135,-3.59175 2.96612,-0.83964 8.79049,-4.76234 10.62953,-6.05282 3.33794,-4.69807 2.76718,-10.13764 0.8467,-14.68918 -2.91737,-3.32408 -2.55246,-3.3888 -5.80439,-4.9577 5.53164,-0.45139 11.44485,-6.53852 10.69581,-9.30441 0.83941,-4.50731 -0.71615,-6.31902 -2.19246,-11.06407 -1.97489,-1.57352 -4.47732,-4.906566 -6.67434,-5.147319 3.05182,-1.65254 3.39613,-2.780249 4.56353,-5.034509 0.41691,-2.801242 0.75152,-4.36163 0.0487,-7.162872 -2.15864,-4.005755 -3.142,-7.394687 -6.97106,-10.207284 -4.03249,-2.196917 -7.71823,-2.302766 -12.94443,-3.067231 C 183.97712,62.013556 180.8659,50.421259 175.93,40.787803 170.2227,30.822966 163.57002,25.030574 155.10108,20.570315 133.8938,7.6087762 96.599997,9.651118 76.919574,21.087383 57.110055,32.981157 47.195048,59.283736 46.477257,75.968818 z"
       id="path3000"
       inkscape:connector-curvature="0"
       sodipodi:nodetypes="ccccccccccccccccccccccccccccccccccccccc"
       transform="translate(239.79443,411.99246)" />
    <path
       style="fill:#ffffff;stroke:#000000;stroke-width:1px;stroke-linecap:butt;stroke-linejoin:miter;stroke-opacity:1"
       d="m 319.54143,650.82348 c 2.4459,-5.15529 0.0585,-3.11186 5.37003,-5.98082 55.25955,-2.21354 34.78154,-0.6 62.01879,-0.7598 5.48801,2.02556 3.70149,3.51762 4.84862,6.88153 -0.16858,1.94187 1.67118,4.9663 -3.05406,4.98205 l -66.86058,-0.0832 c -1.70938,-0.11629 -1.25021,-3.96831 -2.3228,-5.03978 z"
       id="path3002"
       inkscape:connector-curvature="0"
       sodipodi:nodetypes="cccccccc" />
    <path
       style="fill:#ff1a00;fill-opacity:1;stroke:none"
       d="m 310.55024,656.82977 c -6.01147,-6.05479 -6.36782,-8.52173 -5.53884,-12.4489 -0.48044,-4.83315 2.6058,-9.59288 12.1342,-10.62735 21.57161,-1.28306 49.28858,0.95071 69.34862,-0.14836 9.31491,-0.60906 14.91094,0.63109 15.83349,2.50717 2.84089,1.6557 6.03545,4.64876 4.3112,9.48311 -1.462,4.09906 -3.88275,7.90287 -5.99713,11.3827 -4.94929,-0.39067 -3.7498,0.33744 -9.67048,-0.49379 1.80849,-5.34337 1.25415,-10.4411 -2.06884,-11.40443 -6.16809,-1.78813 -22.53183,-1.70057 -33.47597,-1.45462 -10.46079,0.23508 -25.37215,0.21178 -32.4974,1.73709 -2.72273,0.58285 -4.33597,6.25606 -2.26328,10.68962 -6.90786,0.59235 -4.01675,0.54978 -10.11557,0.77776 z"
       id="path3004"
       inkscape:connector-curvature="0"
       sodipodi:nodetypes="cccccsccssscc" />
    <g
       id="g3030"
       transform="translate(5.730659,-1.4326648)">
      <path
         sodipodi:nodetypes="ccccccccccccccccccccccccccccccccccccccc"
         transform="translate(239.79443,411.99246)"
         inkscape:connector-curvature="0"
         id="path3774"
         d="m 139.98153,17.250792 c -0.0324,3.579941 -1.16913,6.592543 -1.90847,9.701214 -4.98084,5.908133 -10.48046,11.193739 -16.65472,15.66977 -1.31429,2.058443 -2.61014,4.135328 -3.2235,6.894699 -0.51731,4.039283 -1.32875,8.283146 -1.25358,11.192693 -3.83763,8.299866 -9.65631,12.74952 -15.84886,17.281519 -1.677437,0.203076 -3.212795,0.464623 -5.103861,1.522207 -2.687769,3.282429 -6.112386,6.509829 -7.073782,10.655444 -1.581783,2.865329 -2.850081,5.730659 -2.775788,8.595988 -0.264959,7.040274 -0.918102,14.468724 -0.53725,20.863184 -0.746609,2.95435 -0.861174,6.66716 -2.686246,8.32736 -2.449085,4.59162 -5.223136,8.20834 -8.148281,11.37178 -0.63966,2.90942 -1.815383,8.3256 -1.790831,11.01361 -10.105429,15.78525 -28.632557,22.36462 -29.459169,26.23567 -1.936972,3.7556 -1.344363,6.78846 -1.790831,10.1182 0.872162,2.66885 2.047857,4.58589 6.626074,6.17836 2.02509,0.337 4.606965,0.80554 7.790115,0.44771 9.006191,-6.3561 15.386275,-16.13067 22.385388,-25.60889 8.618057,-4.31682 2.817969,6.90722 1.611747,8.32737 -0.198741,3.78273 -0.977027,7.33364 -0.08954,11.55086 0.95511,2.35498 1.91022,1.43982 2.86533,1.88037 9.790938,-2.8411 11.461318,-16.74427 15.938395,-26.23567 0.704143,-2.16454 1.115967,-5.05988 1.34312,-8.4169 3.43054,-4.16651 8.56029,-7.05052 11.54823,-11.88093 1.91161,-4.50739 1.34738,-9.70908 2.59934,-13.99658 0.0559,-3.31304 1.08404,-6.62607 -0.35817,-9.93911 1.44225,-3.03265 2.2152,-2.7188 3.2235,-3.58167 1.45572,-0.43753 2.50821,-0.2702 3.49212,0 1.69824,1.5819 2.80234,3.16381 2.5967,4.74571 0.90556,4.30476 0.644,7.6225 0.6268,10.83453 0.94831,0.47962 1.48733,1.98246 3.31303,0.26862 4.20609,-3.01457 4.07068,-6.11867 5.73066,-9.13324 0.44816,-4.51004 0.97968,-9.3014 -0.98496,-15.04298 14.33236,-13.065165 9.64743,-22.071829 11.46132,-33.040831 -0.29179,-6.247092 -1.82948,-10.54665 -2.95487,-15.490687 3.60998,-9.766916 10.61476,-17.496949 16.3861,-25.967049 l 2.50716,-3.581662 0,0 C 155.02522,25.078973 149.3313,20.460533 139.98153,17.250792 z"
         style="fill:#ffffb6;fill-opacity:1;stroke:#000000;stroke-width:2;stroke-linecap:round;stroke-linejoin:round;stroke-miterlimit:4;stroke-opacity:1;stroke-dasharray:none" />
      <path
         sodipodi:nodetypes="ccccccccc"
         transform="translate(239.79443,411.99246)"
         inkscape:connector-curvature="0"
         id="path3776"
         d="m 150.96705,21.758596 -2.149,2.059455 c -0.84705,3.603211 -1.54994,7.245392 -3.31304,10.38682 -3.55531,3.690498 -1.38941,1.393517 -4.02937,3.939828 l -1.79083,1.701289 -2.32808,2.238539 -7.96919,2.686246 c -2.50788,2.548806 -4.5934,5.182086 -5.90975,7.969198 -0.4079,1.545424 -1.14248,2.981955 -0.89541,4.745702"
         style="fill:none;stroke:#000000;stroke-width:1px;stroke-linecap:butt;stroke-linejoin:miter;stroke-opacity:1" />
      <path
         sodipodi:nodetypes="cccccccccc"
         transform="translate(239.79443,411.99246)"
         inkscape:connector-curvature="0"
         id="path3778"
         d="m 137.44628,41.994985 c -0.98073,4.320709 -1.90743,8.677444 -3.58166,12.535817 -1.43838,1.948114 -3.46361,3.700608 -3.58167,6.088825 l -0.35816,4.208453 c -2.42603,3.338297 -4.46746,6.886378 -4.298,11.640401 -0.39371,1.820678 -0.3715,3.462273 -1.34313,5.462035 2.89781,1.975907 4.20153,5.639673 3.04442,11.909025 -0.35953,1.670897 -0.71139,3.953758 -1.25359,5.19341 0.42425,4.764899 0.91892,8.606559 2.05946,12.177649 l 0.26863,6.53653"
         style="fill:none;stroke:#000000;stroke-width:1px;stroke-linecap:butt;stroke-linejoin:miter;stroke-opacity:1" />
      <path
         sodipodi:nodetypes="cccc"
         transform="translate(239.79443,411.99246)"
         inkscape:connector-curvature="0"
         id="path3780"
         d="m 124.46275,81.930515 -2.41762,1.522207 -2.32808,1.074499 -1.70129,1.790831"
         style="fill:none;stroke:#000000;stroke-width:1px;stroke-linecap:butt;stroke-linejoin:miter;stroke-opacity:1" />
      <path
         sodipodi:nodetypes="cccc"
         transform="translate(239.79443,411.99246)"
         inkscape:connector-curvature="0"
         id="path3782"
         d="m 118.19484,86.586676 c -4.1754,0.838923 -8.70859,1.32006 -11.99857,3.044412 -2.7173,1.07329 -5.93616,1.645017 -7.790109,3.581662 -2.926516,1.898141 -3.183979,5.766617 -3.939828,8.77507"
         style="fill:none;stroke:#000000;stroke-width:1px;stroke-linecap:butt;stroke-linejoin:miter;stroke-opacity:1" />
      <path
         sodipodi:nodetypes="ccccccccccc"
         transform="translate(239.79443,411.99246)"
         inkscape:connector-curvature="0"
         id="path3784"
         d="m 118.37393,86.138968 -1.52221,5.19341 c -4.64985,3.181882 -9.0725,6.477362 -11.37178,10.834532 -2.07811,4.98448 1.18315,9.67852 -0.4477,14.95343 -0.72809,3.19636 -0.85283,6.90988 -3.13396,8.77508 l -1.79083,3.13395 c -2.841479,1.58861 -6.121174,3.46942 -7.611031,4.7457 -3.997772,1.43441 -7.643303,3.04199 -10.476362,5.64112 -0.537249,0.97193 -1.074498,1.52077 -1.611748,3.13395 l -0.447707,1.96992 -0.626791,1.88037"
         style="fill:none;stroke:#000000;stroke-width:1px;stroke-linecap:butt;stroke-linejoin:miter;stroke-opacity:1" />
      <path
         sodipodi:nodetypes="ccccc"
         transform="translate(239.79443,411.99246)"
         inkscape:connector-curvature="0"
         id="path3786"
         d="m 99.838825,129.02937 c -1.245398,6.62882 -4.105665,11.87347 -6.98424,17.10243 -6.87286,4.67954 -13.916001,10.15882 -18.087393,15.04298 -5.169125,6.10492 -9.441236,13.46566 -15.669771,18.0874 -1.790831,1.02336 -3.581662,0.93579 -5.372493,0.53725"
         style="fill:none;stroke:#000000;stroke-width:1px;stroke-linecap:butt;stroke-linejoin:miter;stroke-opacity:1" />
      <path
         sodipodi:nodetypes="cc"
         transform="translate(239.79443,411.99246)"
         inkscape:connector-curvature="0"
         id="path3788"
         d="m 92.58596,145.95272 c -0.629229,9.05223 -1.504436,18.96539 -1.701289,26.5043"
         style="fill:none;stroke:#000000;stroke-width:1px;stroke-linecap:butt;stroke-linejoin:miter;stroke-opacity:1" />
      <path
         sodipodi:nodetypes="cccc"
         transform="translate(239.79443,411.99246)"
         inkscape:connector-curvature="0"
         id="path3059"
         d="m 129.67001,63.85262 c 1.86813,5.69451 3.30495,0.862489 4.55871,13.929396 l 0.25327,4.305449 0.25326,3.292403"
         style="fill:none;stroke:#000000;stroke-width:1px;stroke-linecap:butt;stroke-linejoin:miter;stroke-opacity:1" />
    </g>
  </g>
</svg>
