<?xml version="1.0" encoding="UTF-8" standalone="no"?>
<!-- Created with Inkscape (http://www.inkscape.org/) -->

<svg
   xmlns:dc="http://purl.org/dc/elements/1.1/"
   xmlns:cc="http://creativecommons.org/ns#"
   xmlns:rdf="http://www.w3.org/1999/02/22-rdf-syntax-ns#"
   xmlns:svg="http://www.w3.org/2000/svg"
   xmlns="http://www.w3.org/2000/svg"
   xmlns:sodipodi="http://sodipodi.sourceforge.net/DTD/sodipodi-0.dtd"
   xmlns:inkscape="http://www.inkscape.org/namespaces/inkscape"
   width="217.27116"
   height="240.15355"
   id="svg2"
   version="1.1"
   inkscape:version="0.48.2 r9819"
   sodipodi:docname="Escudo de armas de Mineral de la Reforma.svg">
  <title
     id="title3813">Escudo de armas de Mineral de la Reforma</title>
  <defs
     id="defs4">
    <inkscape:path-effect
       effect="spiro"
       id="path-effect3795"
       is_visible="true" />
  </defs>
  <sodipodi:namedview
     id="base"
     pagecolor="#ffffff"
     bordercolor="#666666"
     borderopacity="1.0"
     inkscape:pageopacity="0.0"
     inkscape:pageshadow="2"
     inkscape:zoom="1.4532369"
     inkscape:cx="108.63558"
     inkscape:cy="120.07677"
     inkscape:document-units="px"
     inkscape:current-layer="layer1"
     showgrid="false"
     fit-margin-top="0"
     fit-margin-left="0"
     fit-margin-right="0"
     fit-margin-bottom="0"
     inkscape:window-width="1024"
     inkscape:window-height="538"
     inkscape:window-x="-8"
     inkscape:window-y="-8"
     inkscape:window-maximized="1"
     showguides="true"
     inkscape:guide-bbox="true" />
  <metadata
     id="metadata7">
    <rdf:RDF>
      <cc:Work
         rdf:about="">
        <dc:format>image/svg+xml</dc:format>
        <dc:type
           rdf:resource="http://purl.org/dc/dcmitype/StillImage" />
        <dc:title>Escudo de armas de Mineral de la Reforma</dc:title>
      </cc:Work>
    </rdf:RDF>
  </metadata>
  <g
     inkscape:label="Layer 1"
     inkscape:groupmode="layer"
     id="layer1"
     transform="translate(-465.21455,-468.69293)">
    <path
       style="fill:#008000;stroke:#000000;stroke-width:3;stroke-linecap:round;stroke-linejoin:round;stroke-miterlimit:4;stroke-opacity:1;stroke-dasharray:none"
       d="m 504.94568,534.50208 c -6.8816,-0.87775 -12.68447,1.11215 -17.00453,2.44571 -3.60591,3.89786 -4.39691,6.6113 -4.30018,10.29155 0.0783,3.05868 4.558,7.3484 6.16618,9.96996 -3.75161,2.58501 -8.93142,5.15345 -8.95514,12.05417 -1.14888,7.57495 11.17998,10.37154 9.01606,12.13325 -4.65068,1.39619 -7.71637,10.41165 -7.93584,13.97862 1.23592,4.03478 1.35021,4.8394 5.34457,8.16551 1.64121,1.21726 6.67603,3.62894 9.61587,4.20786 -17.03961,7.31953 -25.38062,27.70328 -27.78725,31.64409 -4.01239,9.81766 -2.23558,19.24977 -0.0573,27.60553 6.73361,16.47863 13.31724,29.52474 27.91612,36.4697 4.44557,2.17279 26.06258,4.86886 30.16714,2.07217 2.22534,-5.2823 -4.37349,-5.0999 -5.11659,-10.61108 0.2224,-3.89754 0.32399,-7.67903 1.39667,-9.8083 6.75701,-6.14294 5.57501,-4.70558 11.85149,-5.83248 35.29917,-0.54219 49.74599,0.23351 81.3501,-0.2278 4.63376,0.61394 5.98739,3.60234 9.5445,6.17573 1.90685,4.36778 -0.0452,7.07178 -1.53539,11.87739 -1.89725,2.82193 -4.45873,6.61568 -3.85555,8.62626 2.39163,3.33518 18.81423,0.76649 21.87841,-1.07449 5.95504,-2.4222 24.14021,-11.95525 30.17724,-23.60779 8.8737,-14.73163 8.18618,-17.22431 8.14782,-26.74785 -2.39212,-20.21963 -10.26132,-29.02867 -20.90527,-43.13877 -1.69949,-1.43943 -4.60312,-2.39106 -6.54135,-3.59175 2.96612,-0.83964 8.79049,-4.76234 10.62953,-6.05282 3.33794,-4.69807 2.76718,-10.13764 0.8467,-14.68918 -2.91737,-3.32408 -2.55246,-3.3888 -5.80439,-4.9577 5.53164,-0.45139 11.44485,-6.53852 10.69581,-9.30441 0.83941,-4.50731 -0.71615,-6.31902 -2.19246,-11.06407 -1.97489,-1.57352 -4.47732,-4.90657 -6.67434,-5.14732 3.05182,-1.65254 3.39613,-2.78025 4.56353,-5.03451 0.41691,-2.80124 0.75152,-4.36163 0.0487,-7.16287 -2.15864,-4.00576 -3.142,-7.39469 -6.97106,-10.20729 -4.03249,-2.19691 -7.71823,-2.30276 -12.94443,-3.06723 -3.27547,-10.34506 -6.38669,-21.93735 -11.32259,-31.57081 -5.7073,-9.96484 -12.35998,-15.75723 -20.82892,-20.21749 -21.20728,-12.96154 -58.50109,-10.91919 -78.18151,0.51707 -19.80952,11.89377 -29.72452,38.19635 -30.44232,54.88144 z"
       id="path3000"
       inkscape:connector-curvature="0"
       sodipodi:nodetypes="ccccccccccccccccccccccccccccccccccccccc" />
    <path
       style="fill:#ffffff;stroke:#000000;stroke-width:1px;stroke-linecap:butt;stroke-linejoin:miter;stroke-opacity:1"
       d="m 538.21543,697.36428 c 2.4459,-5.15529 0.0585,-3.11186 5.37003,-5.98082 55.25955,-2.21354 34.78154,-0.6 62.01879,-0.7598 5.48801,2.02556 3.70149,3.51762 4.84862,6.88153 -0.16858,1.94187 1.67118,4.9663 -3.05406,4.98205 l -66.86058,-0.0832 c -1.70938,-0.11629 -1.25021,-3.96831 -2.3228,-5.03978 z"
       id="path3002"
       inkscape:connector-curvature="0"
       sodipodi:nodetypes="cccccccc" />
    <path
       style="fill:#ff1a00;fill-opacity:1;stroke:none"
       d="m 529.22424,703.37057 c -6.01147,-6.05479 -6.36782,-8.52173 -5.53884,-12.4489 -0.48044,-4.83315 2.6058,-9.59288 12.1342,-10.62735 21.57161,-1.28306 49.28858,0.95071 69.34862,-0.14836 9.31491,-0.60906 14.91094,0.63109 15.83349,2.50717 2.84089,1.6557 6.03545,4.64876 4.3112,9.48311 -1.462,4.09906 -3.88275,7.90287 -5.99713,11.3827 -4.94929,-0.39067 -3.7498,0.33744 -9.67048,-0.49379 1.80849,-5.34337 1.25415,-10.4411 -2.06884,-11.40443 -6.16809,-1.78813 -22.53183,-1.70057 -33.47597,-1.45462 -10.46079,0.23508 -25.37215,0.21178 -32.4974,1.73709 -2.72273,0.58285 -4.33597,6.25606 -2.26328,10.68962 -6.90786,0.59235 -4.01675,0.54978 -10.11557,0.77776 z"
       id="path3004"
       inkscape:connector-curvature="0"
       sodipodi:nodetypes="cccccsccssscc" />
    <path
       style="fill:#cccccc;stroke:#000000;stroke-width:2;stroke-linecap:square;stroke-linejoin:miter;stroke-miterlimit:4;stroke-opacity:1;stroke-dasharray:none"
       d="m 615.22063,574.28298 c -2.00227,-0.46252 -3.87175,-1.72174 -6.08882,-0.89542 -3.48454,-0.25367 -6.63005,0.92493 -9.84957,1.79083 l -8.23783,0.35817 c -0.85738,-0.94067 -1.85118,-1.7904 -4.11891,-1.79083 l -9.67049,0 c -1.7013,0.25668 -3.72269,0.3213 -4.29799,1.25358 l -15.04298,0 -5.55158,-2.68625 -13.25214,-1.0745 -3.40258,-1.16404 c -3.50298,0.24511 -5.71782,0.9196 -7.07379,1.88037 -0.0347,1.58191 -1.05677,3.16381 0.17909,4.74571 1.34671,1.55601 2.225,3.89274 4.20845,4.38753 2.86533,1.00357 5.73066,2.11963 8.59599,1.96992 1.52517,4.41501 3.21751,9.43053 5.8202,12.98352 -0.70302,2.23854 -1.74885,4.47708 -0.62679,6.71562 -0.84721,1.6381 -2.0793,3.20267 -2.50717,4.83524 -0.81777,1.13778 -1.92445,2.21778 -1.61174,3.58166 -0.0226,1.86834 0.39012,3.16028 1.0745,3.85029 l 1.96991,2.59671 c 2.83548,-0.004 5.67096,0.7127 8.50645,-0.35817 1.46821,-0.18896 2.31749,-0.93245 3.31303,-2.77578 2.4995,-0.40079 4.07606,-2.33982 5.90975,-3.85029 l 39.75644,0.17908 c -0.37832,1.61175 -1.57603,3.22349 -0.89541,4.83524 1.33198,2.12227 2.72841,3.53571 4.29799,3.04441 3.80015,0.55492 7.55833,1.2138 11.81949,0.62679 3.88966,-0.43817 5.95577,-2.69991 8.23782,-4.7457 1.30618,-2.02961 0.3218,-4.05921 0.35816,-6.08882 -1.25358,-1.53783 -2.50716,-1.3251 -3.76074,-1.79083 -1.79083,-0.53411 -3.58166,-0.8288 -5.37249,-0.17909 0.0646,-4.09835 -2.20652,-7.32083 -3.93983,-10.74498 -0.84599,-2.66464 -2.11831,-5.89993 -4.38754,-8.32736 2.38778,0.1454 4.77555,0.66936 7.16333,-0.53725 1.99976,-0.92527 2.92502,-2.6564 3.49211,-4.298 0.0238,0.0286 1.2791,-2.14171 -0.17908,-4.38754 -0.8905,-1.85421 -2.05733,-3.50117 -4.83524,-3.93982 z"
       id="path3801"
       inkscape:connector-curvature="0"
       sodipodi:nodetypes="cccccccccccccccccccccccccccccccccccccc" />
    <path
       style="fill:none;stroke:#000000;stroke-width:1px;stroke-linecap:butt;stroke-linejoin:miter;stroke-opacity:1"
       d="m 546.57637,602.81661 c 2.50419,-0.82912 4.54728,-0.0444 6.58481,0.75979 2.22534,0.80772 4.27311,1.82852 5.3185,4.05219 0.55693,2.37386 0.87983,4.70091 0.25326,6.83806"
       id="path3803"
       inkscape:connector-curvature="0"
       sodipodi:nodetypes="cccc" />
    <path
       style="fill:none;stroke:#000000;stroke-width:1px;stroke-linecap:butt;stroke-linejoin:miter;stroke-opacity:1"
       d="m 557.28725,574.46206 c 3.95242,9.26311 6.76494,19.81028 11.28223,28.29513 1.76557,3.24417 3.94152,5.66758 6.17837,7.9692"
       id="path3805"
       inkscape:connector-curvature="0"
       sodipodi:nodetypes="ccc" />
    <path
       style="fill:none;stroke:#000000;stroke-width:1px;stroke-linecap:butt;stroke-linejoin:miter;stroke-opacity:1"
       d="m 540.63252,582.16263 c -1.63175,-1.85155 -2.59987,-2.30856 -3.22349,-6.08882 -0.2121,-1.85211 1.06556,-2.95934 1.70129,-4.38754"
       id="path3807"
       inkscape:connector-curvature="0"
       sodipodi:nodetypes="ccc" />
    <path
       style="fill:none;stroke:#000000;stroke-width:1px;stroke-linecap:butt;stroke-linejoin:miter;stroke-opacity:1"
       d="m 574.65831,574.64115 c 3.13395,9.36157 6.26791,18.78558 9.40186,28.38466 1.02458,3.00479 2.75394,5.3048 4.47708,7.61103"
       id="path3809"
       inkscape:connector-curvature="0"
       sodipodi:nodetypes="ccc" />
    <path
       style="fill:none;stroke:#000000;stroke-width:1px;stroke-linecap:butt;stroke-linejoin:miter;stroke-opacity:1"
       d="m 590.68625,575.6261 c 1.35897,10.76093 5.20238,20.61843 9.13323,30.44413 0.53148,1.96741 2.45206,3.10135 4.11892,4.38753"
       id="path3811"
       inkscape:connector-curvature="0"
       sodipodi:nodetypes="ccc" />
  </g>
</svg>
